<svg width="40" height="40" viewBox="0 0 40 40" fill="none" xmlns="http://www.w3.org/2000/svg">
<path d="M18.3232 28.5566C18.1292 28.6686 17.9557 28.7041 17.8027 28.6631C17.6497 28.6221 17.4946 28.5454 17.3373 28.4329L8.79711 20.5049C8.74325 20.4436 8.70032 20.3852 8.66832 20.3298C8.59632 20.2051 8.57789 20.0772 8.61303 19.9461C8.65403 19.7931 8.72995 19.6846 8.8408 19.6206L10.3789 18.7326C10.5451 18.6366 10.7048 18.6091 10.8578 18.6501C11.0028 18.6772 11.1062 18.7283 11.168 18.8035L17.1769 24.5072L15.4025 16.4418C15.3742 16.3288 15.3806 16.1958 15.4216 16.0428C15.4546 15.876 15.5681 15.7366 15.7621 15.6246L16.8013 15.0246C16.9953 14.9126 17.1728 14.884 17.3338 14.9388C17.4868 14.9798 17.6051 15.0408 17.6888 15.1218L23.7864 20.6912L21.8513 12.6355C21.8172 12.5443 21.8177 12.4332 21.8528 12.3021C21.8938 12.1491 21.9975 12.0246 22.1637 11.9286L23.7018 11.0406C23.8265 10.9686 23.9584 10.9571 24.0976 11.0061C24.2426 11.0332 24.3511 11.1091 24.4231 11.2338C24.4551 11.2892 24.4772 11.3596 24.4895 11.4449L27.0853 22.8049C27.1317 22.9814 27.1275 23.1501 27.0727 23.3111C27.0317 23.4641 26.9142 23.5966 26.7202 23.7086L25.3692 24.4886C25.189 24.5926 25.0086 24.6321 24.8279 24.6071C24.6611 24.5741 24.5129 24.4934 24.3833 24.3649L18.4297 19.045L20.0601 26.8609C20.0927 27.0454 20.0815 27.2181 20.0267 27.3791C19.9857 27.5321 19.8613 27.6686 19.6534 27.7886L18.3232 28.5566Z" fill="white"/>
<circle cx="28.1603" cy="26.6243" r="1.5" fill="white"/>
<circle cx="20" cy="20" r="19.0909" stroke="white" stroke-width="1.81818"/>
</svg>
